<?xml version="1.0" encoding="UTF-8"?>
<svg id="Vrstva_1" xmlns="http://www.w3.org/2000/svg" version="1.1" viewBox="0 0 17.8 18.8">
  <!-- Generator: Adobe Illustrator 29.7.1, SVG Export Plug-In . SVG Version: 2.1.1 Build 8)  -->
  <path d="M8.9,7.8c2.15,0,3.9-1.75,3.9-3.9s-1.75-3.9-3.9-3.9-3.9,1.75-3.9,3.9,1.75,3.9,3.9,3.9ZM8.9,1.8c1.16,0,2.1.94,2.1,2.1s-.94,2.1-2.1,2.1-2.1-.94-2.1-2.1.94-2.1,2.1-2.1Z" fill="#132f4d"/>
  <path d="M8.9,9C3.06,9,0,13.48,0,17.9c0,.5.4.9.9.9s.9-.4.9-.9c0-3.42,2.22-7.1,7.1-7.1s7.1,3.68,7.1,7.1c0,.5.4.9.9.9s.9-.4.9-.9c0-4.42-3.06-8.9-8.9-8.9Z" fill="#132f4d"/>
  <metadata>
    <sfw xmlns="http://ns.adobe.com/SaveForWeb/1.0/">
      <slices/>
      <sliceSourceBounds x="3.1" y="1.1" width="17.8" height="18.8" bottomLeftOrigin="true"/>
    </sfw>
  </metadata>
</svg>