<?xml version="1.0" encoding="UTF-8"?>
<svg id="Vrstva_1" xmlns="http://www.w3.org/2000/svg" version="1.1" viewBox="0 0 13.53 13.6">
  <!-- Generator: Adobe Illustrator 29.7.1, SVG Export Plug-In . SVG Version: 2.1.1 Build 8)  -->
  <path d="M6.77,0C3.49,0-.03.88-.03,2.8v8c0,1.92,3.52,2.8,6.8,2.8s6.8-.88,6.8-2.8V2.8C13.57.88,10.04,0,6.77,0ZM11.97,6.77c-.15.35-1.9,1.23-5.2,1.23s-5.03-.87-5.2-1.22v-2.09c1.33.62,3.31.92,5.2.92s3.87-.3,5.2-.92v2.09ZM6.77,1.6c3.33,0,5.07.88,5.2,1.17-.13.35-1.88,1.23-5.2,1.23S1.71,3.13,1.57,2.83h0c.15-.36,1.89-1.23,5.2-1.23ZM6.77,12c-.41,0-.8-.01-1.16-.04-.24-.02-.46-.04-.68-.07-.11-.01-.23-.02-.33-.03-1.88-.26-2.9-.81-3.02-1.08v-2.09c1.33.62,3.31.92,5.2.92s3.87-.3,5.2-.92v2.08c-.14.35-1.89,1.23-5.2,1.23Z" fill="#132f4d"/>
  <metadata>
    <sfw xmlns="http://ns.adobe.com/SaveForWeb/1.0/">
      <slices/>
      <sliceSourceBounds x="5.2" y="6.2" width="13.6" height="13.6" bottomLeftOrigin="true"/>
    </sfw>
  </metadata>
</svg>