<svg width="284" height="83" viewBox="0 0 284 83" fill="none" xmlns="http://www.w3.org/2000/svg">
<g clip-path="url(#clip0_163_271)">
<path fill-rule="evenodd" clip-rule="evenodd" d="M0 78.4995H4.72383V71.6047H11.0021L11.7621 67.9956H4.72383V63.8797H11.9521L12.7466 60.0784H0V78.4908V78.4995ZM14.8192 78.4995H19.3703V71.0717C19.3703 69.1054 20.5966 67.9694 22.6951 67.9694H24.1805L24.9491 64.2992H23.0406C21.2529 64.2992 19.9576 65.2167 19.5517 66.7897H19.3617L18.904 64.5876H14.8106V78.4908L14.8192 78.4995ZM27.773 83H28.8957C32.8423 83 35.1654 81.6717 36.4953 77.7043L40.8823 64.5963H37.1257L34.0945 73.667H33.8959L30.5797 64.5963H25.8559L31.2101 78.4995L31.1669 78.8578C31.0633 79.6268 30.6574 79.7666 28.723 79.7666H27.0908L27.773 83.0087V83ZM30.8474 60.4367L31.7801 62.5602L35.9081 61.2319L34.6127 58.2607L30.8388 60.4367H30.8474ZM48.3437 78.7879C50.0018 78.7879 51.0036 78.0451 51.7376 76.8217H51.9449L52.2817 78.4995H56.3492V59.7988L51.7981 60.7862V65.5575H51.5908C50.7963 64.7186 49.8464 64.3079 48.3437 64.3079C45.0103 64.3079 41.9618 67.0169 41.9618 71.5435C41.9618 76.0702 45.0103 78.7879 48.3437 78.7879ZM46.5302 71.5348C46.5302 69.1579 47.4715 67.7073 49.1728 67.7073C50.4336 67.7073 51.3058 68.1617 51.7981 68.9744V72.7145C51.7981 74.4535 50.9 75.3798 49.1728 75.3798C47.4456 75.3798 46.5302 73.9205 46.5302 71.5261V71.5348ZM59.8381 78.4995H64.3806V59.7988L59.8381 60.7862V78.4995ZM71.2116 78.7879C73.0165 78.7879 74.5537 78.0364 75.1755 76.8479H75.3741L75.7109 78.4995H79.8388V69.0792C79.8388 66.0557 77.6108 64.3079 73.7074 64.3079C71.8852 64.3079 69.7607 64.5089 68.5863 64.9284L69.2426 67.6286C70.0544 67.3664 70.8316 67.2092 72.3515 67.2092C74.6918 67.2092 75.3654 67.5412 75.3654 68.7035V69.0618L72.3256 69.6298C68.5172 70.3551 66.9023 71.6834 66.9023 74.5759C66.9023 77.1013 68.7244 78.7792 71.1943 78.7792L71.2116 78.7879ZM71.0734 74.2263C71.0734 73.0553 71.7384 72.6621 73.0424 72.4174L75.3741 71.963V73.5709C75.3741 74.7419 74.3119 75.6595 72.9215 75.6595C71.8334 75.6595 71.0734 75.1526 71.0734 74.2351V74.2263ZM83.1205 78.4995H87.663V70.7134C87.663 69.1229 88.4575 68.0218 89.9515 68.0218C91.4455 68.0218 92.1364 68.9656 92.1364 70.6609V78.4995H96.6788V69.6647C96.6788 66.2566 95.038 64.3079 91.9291 64.3079C89.9256 64.3079 88.4661 65.3129 87.8616 66.8771H87.663L87.188 64.5963H83.1205V78.4995ZM106.109 78.4995H107.854L108.57 75.1177H107.154C105.997 75.1177 105.479 74.6196 105.479 73.5534V67.9694H107.577L108.294 64.5876H105.479V61.4154L100.936 62.3941V64.5788H98.786V67.4975L100.936 67.9519V74.5496C100.936 77.3285 102.396 78.4733 106.109 78.4733V78.4995ZM115.246 78.7879C119.115 78.7879 121.369 76.9615 121.369 74.0515C121.369 71.8581 120.203 70.6522 117.759 70.0929L115.686 69.621C114.97 69.4637 114.59 69.1317 114.59 68.5811C114.59 67.8558 115.246 67.4801 116.585 67.4801C117.707 67.4801 118.83 67.7597 119.642 67.9956L120.298 64.9371C119.124 64.5264 117.725 64.3079 115.98 64.3079C112.517 64.3079 110.479 66.0294 110.479 68.8083C110.479 71.0192 111.688 72.4524 113.994 72.9854L116.066 73.466C116.87 73.6496 117.215 73.9991 117.215 74.5234C117.215 75.2837 116.559 75.642 115.255 75.642C113.614 75.642 111.947 75.3361 111.144 75.1002L110.488 78.15C111.662 78.5694 113.061 78.7879 115.255 78.7879H115.246ZM123.916 78.4995H128.459V74.5322L129.426 73.4224L132.76 78.4995H138.036L132.742 70.5473L137.691 64.5876H132.984L128.649 69.7521H128.45V59.7988L123.908 60.7775V78.4908L123.916 78.4995ZM145.938 78.7879C150.377 78.7879 153.14 76.0527 153.14 71.5348C153.14 67.0169 150.385 64.3079 145.938 64.3079C141.49 64.3079 138.744 67.0169 138.744 71.5348C138.744 76.0527 141.49 78.7879 145.938 78.7879ZM143.304 71.5348C143.304 69.1579 144.237 67.7073 145.938 67.7073C147.639 67.7073 148.581 69.1579 148.581 71.5348C148.581 73.9117 147.631 75.3886 145.938 75.3886C144.245 75.3886 143.304 73.9292 143.304 71.5348ZM155.887 73.0204H171.051V68.8957H155.887V73.0204ZM174.808 78.4995H183.599C187.433 78.4995 189.972 76.4372 189.972 73.1602C189.972 70.8357 188.124 68.9307 185.741 68.8345V68.6336C187.675 68.3714 189.135 66.6674 189.135 64.6924C189.135 61.8261 186.967 60.1046 183.34 60.1046H174.808V78.5083V78.4995ZM179.532 75.2313V70.5386H182.269C184.152 70.5386 185.197 71.3513 185.197 72.7844C185.197 74.3574 184.178 75.2313 182.278 75.2313H179.523H179.532ZM179.532 67.4801V63.3641H182.079C183.634 63.3641 184.532 64.1244 184.532 65.4702C184.532 66.7198 183.565 67.4801 181.915 67.4801H179.532ZM199.334 78.7879C201.527 78.7879 202.935 78.5694 204.109 78.15L203.453 75.205C202.581 75.4497 201.864 75.6245 199.645 75.6245C197.676 75.6245 196.786 74.6021 196.536 72.7407H205.923V71.5435C205.923 67.0169 203.177 64.3079 199.161 64.3079C194.714 64.3079 191.967 67.0169 191.967 71.5435C191.967 76.0702 194.714 78.7879 199.325 78.7879H199.334ZM196.544 70.3551C196.777 68.4937 197.676 67.4713 199.17 67.4713C200.292 67.4713 201.139 68.4937 201.363 70.3551H196.544ZM212.624 78.7879C216.485 78.7879 218.747 76.9615 218.747 74.0515C218.747 71.8581 217.581 70.6522 215.137 70.0929L213.065 69.621C212.348 69.4637 211.968 69.1317 211.968 68.5811C211.968 67.8558 212.624 67.4801 213.963 67.4801C215.086 67.4801 216.208 67.7597 217.02 67.9956L217.676 64.9371C216.502 64.5264 215.103 64.3079 213.358 64.3079C209.895 64.3079 207.857 66.0294 207.857 68.8083C207.857 71.0192 209.066 72.4524 211.372 72.9854L213.445 73.466C214.248 73.6496 214.593 73.9991 214.593 74.5234C214.593 75.2837 213.937 75.642 212.633 75.642C210.992 75.642 209.325 75.3361 208.522 75.1002L207.866 78.15C209.04 78.5694 210.439 78.7879 212.633 78.7879H212.624ZM221.295 78.4995H225.837V74.5322L226.804 73.4224L230.138 78.4995H235.414L230.121 70.5473L235.069 64.5876H230.362L226.036 69.7521H225.837V59.7988L221.295 60.7775V78.4908V78.4995ZM238.195 83H239.318C243.256 83 245.588 81.6717 246.917 77.7043L251.305 64.5963H247.548L244.517 73.667H244.318L241.002 64.5963H236.278L241.632 78.4995L241.589 78.8578C241.486 79.6268 241.08 79.7666 239.145 79.7666H237.513L238.195 83.0087V83ZM258.766 78.7879C260.424 78.7879 261.426 78.0451 262.16 76.8217H262.358L262.695 78.4995H266.763V59.7988L262.212 60.7862V65.5575H262.013C261.219 64.7186 260.269 64.3079 258.766 64.3079C255.432 64.3079 252.384 67.0169 252.384 71.5435C252.384 76.0702 255.432 78.7879 258.766 78.7879ZM256.952 71.5348C256.952 69.1579 257.894 67.7073 259.595 67.7073C260.856 67.7073 261.728 68.1617 262.22 68.9744V72.7145C262.22 74.4535 261.322 75.3798 259.595 75.3798C257.868 75.3798 256.952 73.9205 256.952 71.5261V71.5348ZM270.891 83H272.013C275.951 83 278.283 81.6717 279.613 77.7043L284 64.5963H280.243L277.212 73.667H277.005L273.689 64.5963H268.965L274.319 78.4995L274.276 78.8578C274.172 79.6268 273.766 79.7666 271.832 79.7666H270.2L270.882 83.0087L270.891 83Z" fill="#132F4D"/>
<path fill-rule="evenodd" clip-rule="evenodd" d="M143.218 8.51148L160.429 18.5697V27.3259L143.218 17.2676L130.074 24.9489V33.4691L143.218 25.7791L167.752 40.1193V14.5237V14.3314L143.218 0L118.683 14.3314V40.1193L125.972 35.8548V18.5872L143.218 8.51148Z" fill="#132F4D"/>
<path fill-rule="evenodd" clip-rule="evenodd" d="M83.8201 5.26946C83.8201 7.75999 85.815 9.76989 88.2676 9.76989C90.7201 9.76989 92.715 7.75125 92.715 5.26946C92.715 2.78768 90.7201 0.769043 88.2676 0.769043C85.815 0.769043 83.8201 2.78768 83.8201 5.26946Z" fill="#9BB522"/>
<path fill-rule="evenodd" clip-rule="evenodd" d="M88.2674 16.9356L112.802 2.60413V40.3115L93.7944 29.2047L101.074 24.9489L105.513 27.5443V15.3713L88.2674 25.447L71.0215 15.3713V27.5443L75.4604 24.9489L82.7491 29.2047L63.7415 40.3115V2.60413L88.2674 16.9356Z" fill="#132F4D"/>
<path d="M219.965 2.01868H184.506V10.2767H219.965V2.01868Z" fill="#132F4D"/>
<path d="M180.412 2.01868H173.124V10.2767H180.412V2.01868Z" fill="#132F4D"/>
<path d="M219.965 30.7952H184.506V39.0532H219.965V30.7952Z" fill="#132F4D"/>
<path d="M180.412 30.7952H173.124V39.0532H180.412V30.7952Z" fill="#132F4D"/>
<path d="M184.979 15.2053L184.157 23.4214L219.436 27.0349L220.258 18.8189L184.979 15.2053Z" fill="#9BB522"/>
<path d="M173.655 14.0391L172.833 22.2551L180.085 22.9979L180.907 14.7818L173.655 14.0391Z" fill="#9BB522"/>
</g>
<defs>
<clipPath id="clip0_163_271">
<rect width="284" height="83" fill="white"/>
</clipPath>
</defs>
</svg>
