<?xml version="1.0" encoding="UTF-8"?>
<svg id="Vrstva_1" xmlns="http://www.w3.org/2000/svg" version="1.1" viewBox="0 0 275.7 70.2">
  <!-- Generator: Adobe Illustrator 29.3.1, SVG Export Plug-In . SVG Version: 2.1.0 Build 151)  -->
  <defs>
    <style>
      .st0, .st1 {
        fill: #9bb522;
      }

      .st1, .st2 {
        fill-rule: evenodd;
      }

      .st2, .st3 {
        fill: #132e4d;
      }
    </style>
  </defs>
  <polygon class="st2" points="140 14.8 170.3 32.3 170.3 47.6 140 30.1 116.8 43.4 116.8 58.2 140 44.9 183.2 69.8 183.2 25.3 183.2 24.9 140 0 96.8 24.9 96.8 69.8 109.6 62.4 109.6 32.4 140 14.8"/>
  <path class="st1" d="M35.4,9.2c0,4.3,3.5,7.8,7.8,7.8s7.8-3.5,7.8-7.8-3.5-7.8-7.8-7.8-7.8,3.5-7.8,7.8Z"/>
  <polygon class="st2" points="43.2 29.5 86.4 4.5 86.4 70.2 52.9 50.8 65.8 43.4 73.6 47.9 73.6 26.8 43.2 44.3 43.2 44.3 12.8 26.8 12.8 47.9 20.7 43.4 33.5 50.8 0 70.2 0 4.5 43.2 29.5"/>
  <rect class="st3" x="212.7" y="3.5" width="62.5" height="14.4"/>
  <rect class="st3" x="192.7" y="3.5" width="12.8" height="14.4"/>
  <rect class="st3" x="212.7" y="53.6" width="62.5" height="14.4"/>
  <rect class="st3" x="192.7" y="53.6" width="12.8" height="14.4"/>
  <rect class="st0" x="236.7" y="5.5" width="14.4" height="62.5" transform="translate(182.8 275.7) rotate(-84.2)"/>
  <rect class="st0" x="192.1" y="25.8" width="14.4" height="12.8" transform="translate(147.1 227.2) rotate(-84.2)"/>
</svg>